<mxfile host="Electron" agent="Mozilla/5.0 (Windows NT 10.0; Win64; x64) AppleWebKit/537.36 (KHTML, like Gecko) draw.io/24.7.17 Chrome/128.0.6613.36 Electron/32.0.1 Safari/537.36" version="24.7.17">
  <diagram name="Página-1" id="4W8U_QOtFgUKt4UvpwRa">
    <mxGraphModel dx="880" dy="532" grid="1" gridSize="10" guides="1" tooltips="1" connect="1" arrows="1" fold="1" page="1" pageScale="1" pageWidth="827" pageHeight="1169" math="0" shadow="0">
      <root>
        <mxCell id="0" />
        <mxCell id="1" parent="0" />
        <mxCell id="6wMqtbfyp6OTl-1bwsgk-9" value="" style="edgeStyle=orthogonalEdgeStyle;rounded=0;orthogonalLoop=1;jettySize=auto;html=1;" edge="1" parent="1" source="6wMqtbfyp6OTl-1bwsgk-1" target="6wMqtbfyp6OTl-1bwsgk-8">
          <mxGeometry relative="1" as="geometry" />
        </mxCell>
        <mxCell id="6wMqtbfyp6OTl-1bwsgk-19" value="" style="edgeStyle=orthogonalEdgeStyle;rounded=0;orthogonalLoop=1;jettySize=auto;html=1;" edge="1" parent="1" source="6wMqtbfyp6OTl-1bwsgk-1" target="6wMqtbfyp6OTl-1bwsgk-18">
          <mxGeometry relative="1" as="geometry" />
        </mxCell>
        <mxCell id="6wMqtbfyp6OTl-1bwsgk-1" value="AREA" style="whiteSpace=wrap;html=1;" vertex="1" parent="1">
          <mxGeometry x="140" y="160" width="120" height="60" as="geometry" />
        </mxCell>
        <mxCell id="6wMqtbfyp6OTl-1bwsgk-2" value="codigo             " style="shape=waypoint;sketch=0;size=6;pointerEvents=1;points=[];fillColor=none;resizable=0;rotatable=0;perimeter=centerPerimeter;snapToPoint=1;" vertex="1" parent="1">
          <mxGeometry x="110" y="160" width="20" height="20" as="geometry" />
        </mxCell>
        <mxCell id="6wMqtbfyp6OTl-1bwsgk-3" style="edgeStyle=orthogonalEdgeStyle;rounded=0;orthogonalLoop=1;jettySize=auto;html=1;entryX=0;entryY=0.323;entryDx=0;entryDy=0;entryPerimeter=0;endArrow=none;endFill=0;" edge="1" source="6wMqtbfyp6OTl-1bwsgk-2" parent="1">
          <mxGeometry relative="1" as="geometry">
            <mxPoint x="140" y="169" as="targetPoint" />
          </mxGeometry>
        </mxCell>
        <mxCell id="6wMqtbfyp6OTl-1bwsgk-4" value="descripcion o&lt;div&gt;direccion o&lt;/div&gt;" style="text;html=1;align=right;verticalAlign=middle;resizable=0;points=[];autosize=1;strokeColor=none;fillColor=none;" vertex="1" parent="1">
          <mxGeometry x="40" y="180" width="90" height="40" as="geometry" />
        </mxCell>
        <mxCell id="6wMqtbfyp6OTl-1bwsgk-5" value="TELEFONO" style="whiteSpace=wrap;html=1;" vertex="1" parent="1">
          <mxGeometry x="140" y="10" width="120" height="60" as="geometry" />
        </mxCell>
        <mxCell id="6wMqtbfyp6OTl-1bwsgk-6" value="numero telefono                          " style="shape=waypoint;sketch=0;size=6;pointerEvents=1;points=[];fillColor=none;resizable=0;rotatable=0;perimeter=centerPerimeter;snapToPoint=1;" vertex="1" parent="1">
          <mxGeometry x="110" y="20" width="20" height="20" as="geometry" />
        </mxCell>
        <mxCell id="6wMqtbfyp6OTl-1bwsgk-7" style="edgeStyle=orthogonalEdgeStyle;rounded=0;orthogonalLoop=1;jettySize=auto;html=1;entryX=0;entryY=0.323;entryDx=0;entryDy=0;entryPerimeter=0;endArrow=none;endFill=0;" edge="1" source="6wMqtbfyp6OTl-1bwsgk-6" parent="1">
          <mxGeometry relative="1" as="geometry">
            <mxPoint x="140" y="29" as="targetPoint" />
          </mxGeometry>
        </mxCell>
        <mxCell id="6wMqtbfyp6OTl-1bwsgk-10" value="" style="edgeStyle=orthogonalEdgeStyle;rounded=0;orthogonalLoop=1;jettySize=auto;html=1;" edge="1" parent="1" source="6wMqtbfyp6OTl-1bwsgk-8" target="6wMqtbfyp6OTl-1bwsgk-5">
          <mxGeometry relative="1" as="geometry" />
        </mxCell>
        <mxCell id="6wMqtbfyp6OTl-1bwsgk-8" value="tiene" style="rhombus;whiteSpace=wrap;html=1;" vertex="1" parent="1">
          <mxGeometry x="175" y="90" width="50" height="50" as="geometry" />
        </mxCell>
        <mxCell id="6wMqtbfyp6OTl-1bwsgk-11" value="(1,N)" style="text;html=1;align=center;verticalAlign=middle;resizable=0;points=[];autosize=1;strokeColor=none;fillColor=none;" vertex="1" parent="1">
          <mxGeometry x="140" y="130" width="50" height="30" as="geometry" />
        </mxCell>
        <mxCell id="6wMqtbfyp6OTl-1bwsgk-12" value="(1,1)" style="text;html=1;align=center;verticalAlign=middle;resizable=0;points=[];autosize=1;strokeColor=none;fillColor=none;" vertex="1" parent="1">
          <mxGeometry x="140" y="70" width="50" height="30" as="geometry" />
        </mxCell>
        <mxCell id="6wMqtbfyp6OTl-1bwsgk-45" style="edgeStyle=orthogonalEdgeStyle;rounded=0;orthogonalLoop=1;jettySize=auto;html=1;entryX=0.5;entryY=0;entryDx=0;entryDy=0;" edge="1" parent="1" source="6wMqtbfyp6OTl-1bwsgk-13" target="6wMqtbfyp6OTl-1bwsgk-42">
          <mxGeometry relative="1" as="geometry" />
        </mxCell>
        <mxCell id="6wMqtbfyp6OTl-1bwsgk-46" style="edgeStyle=orthogonalEdgeStyle;rounded=0;orthogonalLoop=1;jettySize=auto;html=1;entryX=0.5;entryY=0;entryDx=0;entryDy=0;" edge="1" parent="1" source="6wMqtbfyp6OTl-1bwsgk-13" target="6wMqtbfyp6OTl-1bwsgk-41">
          <mxGeometry relative="1" as="geometry" />
        </mxCell>
        <mxCell id="6wMqtbfyp6OTl-1bwsgk-13" value="EMPLEADO" style="whiteSpace=wrap;html=1;" vertex="1" parent="1">
          <mxGeometry x="490" y="20" width="120" height="60" as="geometry" />
        </mxCell>
        <mxCell id="6wMqtbfyp6OTl-1bwsgk-14" value="dni        " style="shape=waypoint;sketch=0;size=6;pointerEvents=1;points=[];fillColor=none;resizable=0;rotatable=0;perimeter=centerPerimeter;snapToPoint=1;" vertex="1" parent="1">
          <mxGeometry x="460" y="20" width="20" height="20" as="geometry" />
        </mxCell>
        <mxCell id="6wMqtbfyp6OTl-1bwsgk-15" style="edgeStyle=orthogonalEdgeStyle;rounded=0;orthogonalLoop=1;jettySize=auto;html=1;entryX=0;entryY=0.323;entryDx=0;entryDy=0;entryPerimeter=0;endArrow=none;endFill=0;" edge="1" source="6wMqtbfyp6OTl-1bwsgk-14" parent="1">
          <mxGeometry relative="1" as="geometry">
            <mxPoint x="490" y="29" as="targetPoint" />
          </mxGeometry>
        </mxCell>
        <mxCell id="6wMqtbfyp6OTl-1bwsgk-16" value="cuit         " style="shape=waypoint;sketch=0;size=6;pointerEvents=1;points=[];fillColor=none;resizable=0;rotatable=0;perimeter=centerPerimeter;snapToPoint=1;" vertex="1" parent="1">
          <mxGeometry x="460" y="70" width="20" height="20" as="geometry" />
        </mxCell>
        <mxCell id="6wMqtbfyp6OTl-1bwsgk-17" style="edgeStyle=orthogonalEdgeStyle;rounded=0;orthogonalLoop=1;jettySize=auto;html=1;entryX=0;entryY=0.323;entryDx=0;entryDy=0;entryPerimeter=0;endArrow=none;endFill=0;" edge="1" source="6wMqtbfyp6OTl-1bwsgk-16" parent="1">
          <mxGeometry relative="1" as="geometry">
            <mxPoint x="490" y="79" as="targetPoint" />
          </mxGeometry>
        </mxCell>
        <mxCell id="6wMqtbfyp6OTl-1bwsgk-50" value="" style="edgeStyle=orthogonalEdgeStyle;rounded=0;orthogonalLoop=1;jettySize=auto;html=1;" edge="1" parent="1" source="6wMqtbfyp6OTl-1bwsgk-18" target="6wMqtbfyp6OTl-1bwsgk-43">
          <mxGeometry relative="1" as="geometry" />
        </mxCell>
        <mxCell id="6wMqtbfyp6OTl-1bwsgk-18" value="trabaja" style="rhombus;whiteSpace=wrap;html=1;" vertex="1" parent="1">
          <mxGeometry x="240" y="280" width="40" height="40" as="geometry" />
        </mxCell>
        <mxCell id="6wMqtbfyp6OTl-1bwsgk-26" value="&lt;pre style=&quot;font-size: 9px;&quot;&gt;&lt;font style=&quot;font-size: 9px;&quot;&gt;&lt;br&gt;&lt;/font&gt;&lt;font style=&quot;font-size: 9px;&quot;&gt;o nombre&amp;nbsp;&lt;br&gt;&lt;/font&gt;&lt;font style=&quot;font-size: 9px;&quot;&gt;o apellido&lt;/font&gt;&lt;/pre&gt;" style="text;html=1;align=left;verticalAlign=middle;resizable=0;points=[];autosize=1;strokeColor=none;fillColor=none;" vertex="1" parent="1">
          <mxGeometry x="610" y="30" width="80" height="60" as="geometry" />
        </mxCell>
        <mxCell id="6wMqtbfyp6OTl-1bwsgk-27" value="&lt;font style=&quot;font-size: 9px;&quot;&gt;o Fecha Desde&lt;/font&gt;" style="text;html=1;align=center;verticalAlign=middle;resizable=0;points=[];autosize=1;strokeColor=none;fillColor=none;" vertex="1" parent="1">
          <mxGeometry x="165" y="260" width="80" height="30" as="geometry" />
        </mxCell>
        <mxCell id="6wMqtbfyp6OTl-1bwsgk-28" value="&lt;font style=&quot;font-size: 9px;&quot;&gt;o Fecha Hasta(0,1)&lt;/font&gt;" style="text;html=1;align=center;verticalAlign=middle;resizable=0;points=[];autosize=1;strokeColor=none;fillColor=none;" vertex="1" parent="1">
          <mxGeometry x="155" y="325" width="100" height="30" as="geometry" />
        </mxCell>
        <mxCell id="6wMqtbfyp6OTl-1bwsgk-38" value="" style="edgeStyle=orthogonalEdgeStyle;rounded=0;orthogonalLoop=1;jettySize=auto;html=1;" edge="1" parent="1" source="6wMqtbfyp6OTl-1bwsgk-29" target="6wMqtbfyp6OTl-1bwsgk-30">
          <mxGeometry relative="1" as="geometry" />
        </mxCell>
        <mxCell id="6wMqtbfyp6OTl-1bwsgk-29" value="dicta" style="rhombus;whiteSpace=wrap;html=1;" vertex="1" parent="1">
          <mxGeometry x="530" y="260" width="40" height="40" as="geometry" />
        </mxCell>
        <mxCell id="6wMqtbfyp6OTl-1bwsgk-30" value="MATERIA" style="whiteSpace=wrap;html=1;" vertex="1" parent="1">
          <mxGeometry x="490" y="360" width="120" height="60" as="geometry" />
        </mxCell>
        <mxCell id="6wMqtbfyp6OTl-1bwsgk-31" value="    codigo" style="shape=waypoint;sketch=0;size=6;pointerEvents=1;points=[];fillColor=none;resizable=0;rotatable=0;perimeter=centerPerimeter;snapToPoint=1;align=left;" vertex="1" parent="1">
          <mxGeometry x="620" y="370" width="20" height="20" as="geometry" />
        </mxCell>
        <mxCell id="6wMqtbfyp6OTl-1bwsgk-32" style="edgeStyle=orthogonalEdgeStyle;rounded=0;orthogonalLoop=1;jettySize=auto;html=1;entryX=0.217;entryY=0.9;entryDx=0;entryDy=0;entryPerimeter=0;endArrow=none;endFill=0;" edge="1" target="6wMqtbfyp6OTl-1bwsgk-31" parent="1">
          <mxGeometry relative="1" as="geometry">
            <mxPoint x="610" y="380" as="sourcePoint" />
            <Array as="points">
              <mxPoint x="620" y="380" />
              <mxPoint x="620" y="380" />
            </Array>
          </mxGeometry>
        </mxCell>
        <mxCell id="6wMqtbfyp6OTl-1bwsgk-34" value="o Descripcion" style="text;html=1;align=center;verticalAlign=middle;resizable=0;points=[];autosize=1;strokeColor=none;fillColor=none;" vertex="1" parent="1">
          <mxGeometry x="600" y="390" width="100" height="30" as="geometry" />
        </mxCell>
        <mxCell id="6wMqtbfyp6OTl-1bwsgk-35" value="(1,N)" style="text;html=1;align=center;verticalAlign=middle;resizable=0;points=[];autosize=1;strokeColor=none;fillColor=none;" vertex="1" parent="1">
          <mxGeometry x="255" y="155" width="50" height="30" as="geometry" />
        </mxCell>
        <mxCell id="6wMqtbfyp6OTl-1bwsgk-40" value="(1,N)" style="text;html=1;align=center;verticalAlign=middle;resizable=0;points=[];autosize=1;strokeColor=none;fillColor=none;" vertex="1" parent="1">
          <mxGeometry x="545" y="318" width="50" height="30" as="geometry" />
        </mxCell>
        <mxCell id="6wMqtbfyp6OTl-1bwsgk-47" value="" style="edgeStyle=orthogonalEdgeStyle;rounded=0;orthogonalLoop=1;jettySize=auto;html=1;" edge="1" parent="1" source="6wMqtbfyp6OTl-1bwsgk-41" target="6wMqtbfyp6OTl-1bwsgk-43">
          <mxGeometry relative="1" as="geometry" />
        </mxCell>
        <mxCell id="6wMqtbfyp6OTl-1bwsgk-41" value="esUN" style="rhombus;whiteSpace=wrap;html=1;" vertex="1" parent="1">
          <mxGeometry x="390" y="140" width="50" height="50" as="geometry" />
        </mxCell>
        <mxCell id="6wMqtbfyp6OTl-1bwsgk-48" value="" style="edgeStyle=orthogonalEdgeStyle;rounded=0;orthogonalLoop=1;jettySize=auto;html=1;" edge="1" parent="1" source="6wMqtbfyp6OTl-1bwsgk-42" target="6wMqtbfyp6OTl-1bwsgk-44">
          <mxGeometry relative="1" as="geometry" />
        </mxCell>
        <mxCell id="6wMqtbfyp6OTl-1bwsgk-42" value="esUN&lt;div&gt;2&lt;/div&gt;" style="rhombus;whiteSpace=wrap;html=1;" vertex="1" parent="1">
          <mxGeometry x="675" y="135" width="50" height="50" as="geometry" />
        </mxCell>
        <mxCell id="6wMqtbfyp6OTl-1bwsgk-43" value="No Docente" style="whiteSpace=wrap;html=1;" vertex="1" parent="1">
          <mxGeometry x="330" y="265" width="120" height="60" as="geometry" />
        </mxCell>
        <mxCell id="6wMqtbfyp6OTl-1bwsgk-49" value="" style="edgeStyle=orthogonalEdgeStyle;rounded=0;orthogonalLoop=1;jettySize=auto;html=1;" edge="1" parent="1" source="6wMqtbfyp6OTl-1bwsgk-44" target="6wMqtbfyp6OTl-1bwsgk-29">
          <mxGeometry relative="1" as="geometry" />
        </mxCell>
        <mxCell id="6wMqtbfyp6OTl-1bwsgk-44" value="DOCENTE" style="whiteSpace=wrap;html=1;" vertex="1" parent="1">
          <mxGeometry x="640" y="245" width="120" height="60" as="geometry" />
        </mxCell>
        <mxCell id="6wMqtbfyp6OTl-1bwsgk-51" value="(1,N)" style="text;html=1;align=center;verticalAlign=middle;resizable=0;points=[];autosize=1;strokeColor=none;fillColor=none;" vertex="1" parent="1">
          <mxGeometry x="285" y="298" width="50" height="30" as="geometry" />
        </mxCell>
        <mxCell id="6wMqtbfyp6OTl-1bwsgk-53" value="&lt;font style=&quot;font-size: 9px;&quot;&gt;o categoria&amp;nbsp;&amp;nbsp;&lt;/font&gt;" style="text;html=1;align=right;verticalAlign=middle;resizable=0;points=[];autosize=1;strokeColor=none;fillColor=none;" vertex="1" parent="1">
          <mxGeometry x="416.31999999999994" y="223" width="70" height="30" as="geometry" />
        </mxCell>
        <mxCell id="6wMqtbfyp6OTl-1bwsgk-54" value="" style="endArrow=none;html=1;rounded=0;exitX=0.639;exitY=0.008;exitDx=0;exitDy=0;exitPerimeter=0;" edge="1" parent="1">
          <mxGeometry width="50" height="50" relative="1" as="geometry">
            <mxPoint x="418.31999999999994" y="265" as="sourcePoint" />
            <mxPoint x="435.5268649885584" y="241.78" as="targetPoint" />
          </mxGeometry>
        </mxCell>
        <mxCell id="6wMqtbfyp6OTl-1bwsgk-56" value="" style="shape=waypoint;sketch=0;size=6;pointerEvents=1;points=[];fillColor=none;resizable=0;rotatable=0;perimeter=centerPerimeter;snapToPoint=1;" vertex="1" parent="1">
          <mxGeometry x="440" y="240" width="20" height="20" as="geometry" />
        </mxCell>
        <mxCell id="6wMqtbfyp6OTl-1bwsgk-57" style="edgeStyle=orthogonalEdgeStyle;rounded=0;orthogonalLoop=1;jettySize=auto;html=1;endArrow=none;endFill=0;" edge="1" parent="1">
          <mxGeometry relative="1" as="geometry">
            <mxPoint x="416.32" y="109" as="sourcePoint" />
            <mxPoint x="446.32" y="253" as="targetPoint" />
            <Array as="points">
              <mxPoint x="446" y="109" />
              <mxPoint x="446" y="203" />
              <mxPoint x="426" y="203" />
              <mxPoint x="426" y="250" />
              <mxPoint x="446" y="250" />
            </Array>
          </mxGeometry>
        </mxCell>
        <mxCell id="6wMqtbfyp6OTl-1bwsgk-58" value="     legajo" style="shape=waypoint;sketch=0;size=6;pointerEvents=1;points=[];fillColor=none;resizable=0;rotatable=0;perimeter=centerPerimeter;snapToPoint=1;align=left;" vertex="1" parent="1">
          <mxGeometry x="770" y="240" width="20" height="20" as="geometry" />
        </mxCell>
        <mxCell id="6wMqtbfyp6OTl-1bwsgk-59" style="edgeStyle=orthogonalEdgeStyle;rounded=0;orthogonalLoop=1;jettySize=auto;html=1;entryX=0.217;entryY=0.9;entryDx=0;entryDy=0;entryPerimeter=0;endArrow=none;endFill=0;" edge="1" target="6wMqtbfyp6OTl-1bwsgk-58" parent="1">
          <mxGeometry relative="1" as="geometry">
            <mxPoint x="760" y="250" as="sourcePoint" />
            <Array as="points">
              <mxPoint x="770" y="250" />
              <mxPoint x="770" y="250" />
            </Array>
          </mxGeometry>
        </mxCell>
        <mxCell id="6wMqtbfyp6OTl-1bwsgk-60" value="(0,1)" style="text;html=1;align=center;verticalAlign=middle;resizable=0;points=[];autosize=1;strokeColor=none;fillColor=none;" vertex="1" parent="1">
          <mxGeometry x="405" y="18" width="50" height="30" as="geometry" />
        </mxCell>
        <mxCell id="6wMqtbfyp6OTl-1bwsgk-61" value="(1,1)" style="text;html=1;align=center;verticalAlign=middle;resizable=0;points=[];autosize=1;strokeColor=none;fillColor=none;" vertex="1" parent="1">
          <mxGeometry x="335" y="228" width="50" height="30" as="geometry" />
        </mxCell>
        <mxCell id="6wMqtbfyp6OTl-1bwsgk-62" value="(0,1)" style="text;html=1;align=center;verticalAlign=middle;resizable=0;points=[];autosize=1;strokeColor=none;fillColor=none;" vertex="1" parent="1">
          <mxGeometry x="615" y="8" width="50" height="30" as="geometry" />
        </mxCell>
        <mxCell id="6wMqtbfyp6OTl-1bwsgk-63" value="(1,1)" style="text;html=1;align=center;verticalAlign=middle;resizable=0;points=[];autosize=1;strokeColor=none;fillColor=none;" vertex="1" parent="1">
          <mxGeometry x="705" y="188" width="50" height="30" as="geometry" />
        </mxCell>
        <mxCell id="6wMqtbfyp6OTl-1bwsgk-64" value="AREA=(&lt;u&gt;codigo&lt;/u&gt;, descripcion, direccion)&lt;div style=&quot;&quot;&gt;TELEFONO=&lt;u&gt;(numero telefono&lt;/u&gt;)&lt;/div&gt;&lt;div style=&quot;&quot;&gt;EMPLEADO=(&lt;u&gt;DNI&lt;/u&gt;,&lt;u&gt;CUIT&lt;/u&gt;, nombre,apellido)&lt;/div&gt;&lt;div style=&quot;&quot;&gt;No Docente=(DNI(fk), categoria)&lt;/div&gt;&lt;div style=&quot;&quot;&gt;DOCENTE=(&lt;u&gt;legajo,DNI(fk),codigo(fk)&lt;/u&gt;)&lt;/div&gt;&lt;div style=&quot;&quot;&gt;MATERIA=(&lt;u&gt;codigo&lt;/u&gt;,descripcion)&lt;/div&gt;&lt;div style=&quot;&quot;&gt;TIENE=(&lt;u&gt;Codigo&lt;/u&gt;,&lt;u&gt;NumeroTelefono&lt;/u&gt;)&lt;/div&gt;&lt;div style=&quot;&quot;&gt;esUN=(DNI,DNI(fk))&lt;/div&gt;&lt;div style=&quot;&quot;&gt;TRABAJA=(&lt;u&gt;codigo&lt;/u&gt;,&lt;u&gt;dni&lt;/u&gt;,&lt;u&gt;fechaDesde&lt;/u&gt;,fechaHasta?,DNI(fk))&lt;/div&gt;&lt;div style=&quot;&quot;&gt;esUN2=(&lt;u&gt;DNI&lt;/u&gt;,legajo(fk))&lt;/div&gt;&lt;div style=&quot;&quot;&gt;DICTA=(&lt;u&gt;legajo&lt;/u&gt;, codigo(fk))&lt;/div&gt;" style="text;html=1;align=left;verticalAlign=middle;resizable=0;points=[];autosize=1;strokeColor=none;fillColor=none;" vertex="1" parent="1">
          <mxGeometry x="90" y="370" width="330" height="170" as="geometry" />
        </mxCell>
      </root>
    </mxGraphModel>
  </diagram>
</mxfile>
